<?xml version="1.0" standalone="no"?>
<!DOCTYPE svg PUBLIC "-//W3C//DTD SVG 20010904//EN"
 "http://www.w3.org/TR/2001/REC-SVG-20010904/DTD/svg10.dtd">
<svg version="1.0" xmlns="http://www.w3.org/2000/svg"
 width="700.000000pt" height="700.000000pt" viewBox="0 0 700.000000 700.000000"
 preserveAspectRatio="xMidYMid meet">
<metadata>
Created by potrace 1.14, written by Peter Selinger 2001-2017
</metadata>
<g transform="translate(0.000000,700.000000) scale(0.100000,-0.100000)"
fill="#000000" stroke="none">
<path d="M1565 6890 c-27 -4 -70 -11 -95 -15 -150 -22 -347 -90 -495 -169
-351 -190 -606 -476 -765 -861 -14 -33 -57 -176 -70 -229 -39 -168 -39 -173
-37 -2056 2 -998 6 -1828 10 -1845 5 -16 16 -70 27 -120 43 -204 120 -384 246
-570 264 -393 691 -654 1164 -713 78 -10 3621 -9 3700 1 101 12 111 14 180 30
174 42 375 129 522 226 405 268 663 676 733 1159 12 81 14 396 12 1907 -2 996
-6 1826 -10 1845 -4 19 -15 69 -23 110 -66 320 -218 596 -459 835 -126 126
-254 217 -420 299 -180 90 -327 135 -545 165 -78 11 -3603 12 -3675 1z"/>
</g>
</svg>
